<svg xmlns="http://www.w3.org/2000/svg" viewBox="0 0 64 64">
  <style>
    .sky { fill: #fcfbf6; }
    .space { fill: #1c2434; }
    .iono { fill: #2c5697; }
    .ocean { fill: #2a6a9b; }
    .land { fill: #2e7c4f; }
    .hop { stroke: #23211c; }
    .station { fill: #be3b2e; }
    @media (prefers-color-scheme: dark) {
      .sky { fill: #15293f; }
      .space { fill: #060b12; }
      .iono { fill: #7fa8dc; }
      .ocean { fill: #3d7fb5; }
      .land { fill: #6fbe8b; }
      .hop { stroke: #dce8f2; }
      .station { fill: #e0685c; }
    }
  </style>
  <clipPath id="r"><rect width="64" height="64" rx="10"/></clipPath>
  <clipPath id="e"><path d="M 0 56 Q 32 47 64 56 L 64 64 L 0 64 Z"/></clipPath>
  <g clip-path="url(#r)">
    <rect class="sky" width="64" height="64"/>
    <path class="space" d="M 0 0 L 64 0 L 64 18 Q 32 8 0 18 Z"/>
    <path class="iono" d="M 0 18 Q 32 8 64 18 L 64 22 Q 32 12 0 22 Z"/>
    <!-- lower layer: the hop pierces this one and reflects off the one above -->
    <path class="iono" opacity="0.55" d="M 0 38 Q 32 28 64 38 L 64 41 Q 32 31 0 41 Z"/>
    <!-- earth: two continents under the stations, open ocean between them -->
    <path class="ocean" d="M 0 56 Q 32 47 64 56 L 64 64 L 0 64 Z"/>
    <g clip-path="url(#e)">
      <ellipse class="land" cx="13" cy="58" rx="12" ry="9"/>
      <ellipse class="land" cx="51" cy="58" rx="12" ry="9"/>
    </g>
    <!-- the hop, apex kissing the underside of the curved layer -->
    <path class="hop" d="M 12 53 Q 32 -12 52 53" fill="none" stroke-width="5.5"
          stroke-linecap="round"/>
    <circle class="station" cx="12" cy="53" r="5.5"/>
    <circle class="station" cx="52" cy="53" r="5.5"/>
  </g>
</svg>
